<svg width="23" height="18" viewBox="0 0 23 18" fill="none" xmlns="http://www.w3.org/2000/svg">
<path d="M22.7902 1.65506C22.7882 1.46589 22.7532 1.2785 22.6868 1.10133C22.4394 0.460079 21.8213 0.0386769 21.134 0.0427539H1.666C0.978704 0.0386769 0.36052 0.460079 0.113184 1.10133C0.0467103 1.27873 0.0116873 1.46643 0.0097459 1.65587C0.0097459 1.67296 0 1.68763 0 1.70472V16.3285C0 17.2279 0.729116 17.9571 1.62857 17.9571H21.1714C22.0709 17.9571 22.8 17.2279 22.8 16.3285V1.7039C22.8 1.68682 22.791 1.67214 22.7902 1.65506ZM21.1714 16.3285H1.62857V3.90818L10.2722 11.819C10.9126 12.398 11.8874 12.398 12.5278 11.819L21.1714 3.90818V16.3285ZM21.1608 1.70798L11.3715 10.6179L1.666 1.67133L21.1714 1.69656C21.1714 1.69656 21.1714 1.70064 21.1608 1.70798Z" fill="white"/>
</svg>
