<svg width="22" height="24" viewBox="0 0 22 24" fill="none" xmlns="http://www.w3.org/2000/svg">
<g clip-path="url(#clip0_38_53)">
<path d="M12.8799 16.5797C12.5324 16.4798 12.1604 16.5731 11.8817 16.8184L10.5795 17.9651C10.2053 18.2946 9.67453 18.3382 9.26663 18.0589C7.77193 17.0349 6.54854 15.7166 5.59866 14.1056C5.33947 13.666 5.37998 13.0938 5.68567 12.6906L6.7496 11.2871C6.97718 10.9869 7.06373 10.5858 6.97104 10.2112C6.51175 8.35613 5.53818 7.03821 4.06914 6.23987C3.73982 6.06091 3.34849 6.08439 3.0247 6.27443C2.32707 6.68379 1.65662 7.14061 1.01729 7.64773C0.669702 7.92345 0.491216 8.38706 0.567666 8.84473C1.10768 12.0791 2.7422 15.4665 5.37306 18.3021C8.00397 21.1378 11.1469 22.8995 14.1479 23.4813C14.5725 23.5637 15.0026 23.3713 15.2585 22.9967C15.729 22.3077 16.1528 21.585 16.5327 20.8331C16.709 20.4842 16.7308 20.0624 16.5647 19.7075C15.824 18.1241 14.6012 17.0748 12.8802 16.5798L12.8799 16.5797Z" fill="white"/>
<path d="M18.4322 4.22739C16.3988 2.03605 13.5804 0.852648 10.6984 0.984287C10.4173 0.996858 10.1989 1.25306 10.2106 1.55607C10.2223 1.85957 10.4702 2.08965 10.7411 2.08203C13.3441 1.95931 15.8792 3.02993 17.7111 5.0041C19.543 6.97894 20.5312 9.7167 20.4223 12.5163C20.4106 12.8193 20.6289 13.0755 20.9103 13.0881C20.9174 13.0883 20.9247 13.0886 20.9319 13.0886C21.2036 13.0886 21.4293 12.8575 21.4408 12.5623C21.5617 9.45679 20.4651 6.41854 18.4319 4.22737L18.4322 4.22739Z" fill="white"/>
<path d="M10.6902 3.90767C10.409 3.92553 10.1946 4.18554 10.2112 4.48821C10.2278 4.79122 10.4673 5.02476 10.7499 5.0044C12.6282 4.88713 14.4685 5.63719 15.7961 7.06803C17.1237 8.49888 17.8215 10.4813 17.7108 12.5068C17.6942 12.8096 17.9086 13.0695 18.1897 13.0873C18.1998 13.088 18.2101 13.0883 18.2201 13.0883C18.488 13.0883 18.7125 12.8632 18.7285 12.5711C18.8563 10.2327 18.0502 7.94363 16.5168 6.29104C14.9836 4.63859 12.8573 3.76858 10.6902 3.90767Z" fill="white"/>
<path d="M15.463 13.0861C15.4791 13.0877 15.495 13.0884 15.511 13.0884C15.7711 13.0884 15.9933 12.8747 16.0179 12.5901C16.1541 11.0158 15.638 9.47216 14.6016 8.35549C13.5653 7.23856 12.1344 6.68232 10.6726 6.82904C10.3923 6.85716 10.1863 7.12493 10.2124 7.42711C10.2383 7.72929 10.4872 7.95041 10.7673 7.92314C11.9256 7.80654 13.0597 8.24765 13.881 9.1325C14.7021 10.0175 15.1111 11.2408 15.0031 12.4884C14.9767 12.7902 15.1827 13.058 15.463 13.0861Z" fill="white"/>
</g>
<defs>
<clipPath id="clip0_38_53">
<rect width="22" height="23" fill="white" transform="translate(0 0.5)"/>
</clipPath>
</defs>
</svg>
