<svg width="57" height="57" viewBox="0 0 57 57" fill="none" xmlns="http://www.w3.org/2000/svg">
<path d="M28.5 0C20.9413 0 13.6922 3.00267 8.34746 8.34746C3.00267 13.6922 0 20.9413 0 28.5C0 36.0587 3.00267 43.3078 8.34746 48.6525C13.6922 53.9973 20.9413 57 28.5 57C36.0587 57 43.3078 53.9973 48.6525 48.6525C53.9973 43.3078 57 36.0587 57 28.5C57 20.9413 53.9973 13.6922 48.6525 8.34746C43.3078 3.00267 36.0587 0 28.5 0Z" fill="#29B6F6"/>
<path d="M42.6787 15.675L37.3407 42.9296C37.3407 42.9296 37.1113 44.175 35.5666 44.175C34.7458 44.175 34.3225 43.7846 34.3225 43.7846L22.7601 34.19L17.1028 31.3386L9.84246 29.4077C9.84246 29.4077 8.54999 29.0344 8.54999 27.9656C8.54999 27.075 9.87951 26.6504 9.87951 26.6504L40.2548 14.5835C40.2548 14.5835 41.1825 14.2486 41.8594 14.25C42.2755 14.25 42.75 14.4281 42.75 14.9625C42.75 15.3188 42.6787 15.675 42.6787 15.675Z" fill="white"/>
<path d="M27.075 37.7695L22.193 42.5774C22.193 42.5774 21.9807 42.7413 21.6971 42.7484C21.5988 42.7513 21.4933 42.7356 21.385 42.6871L22.7587 34.187L27.075 37.7695Z" fill="#B0BEC5"/>
<path d="M36.9033 20.2291C36.6624 19.9156 36.2178 19.8586 35.9043 20.0966L17.1 31.3498C17.1 31.3498 20.1011 39.7459 20.5585 41.1994C21.0174 42.6543 21.385 42.6885 21.385 42.6885L22.7587 34.1884L36.7693 21.2266C37.0828 20.9886 37.1412 20.5426 36.9033 20.2291Z" fill="#CFD8DC"/>
</svg>
