<svg width="57" height="57" viewBox="0 0 57 57" fill="none" xmlns="http://www.w3.org/2000/svg">
<path d="M0 57L4.902 42.295C2.41464 38.1114 0.982759 33.229 0.982759 28.0086C0.982759 12.54 13.5228 0 28.9914 0C44.46 0 57 12.54 57 28.0086C57 43.4772 44.46 56.0172 28.9914 56.0172C24.2849 56.0172 19.8527 54.8507 15.96 52.8007L0 57Z" fill="#2CB742"/>
<path d="M46.8608 37.3301C45.5675 34.886 40.7982 32.091 40.7982 32.091C39.7191 31.4758 38.417 31.407 37.8018 32.5038C37.8018 32.5038 36.252 34.3622 35.8579 34.6295C34.0575 35.8491 32.3897 35.8019 30.7063 34.1185L26.7939 30.2061L22.8815 26.2937C21.1981 24.6103 21.1509 22.9425 22.3705 21.1421C22.6378 20.748 24.4962 19.1982 24.4962 19.1982C25.593 18.582 25.5242 17.2808 24.909 16.2018C24.909 16.2018 22.114 11.4324 19.6699 10.1391C18.6301 9.58879 17.3535 9.78141 16.5221 10.6128L14.7944 12.3405C9.31357 17.8214 12.0122 24.0088 17.4931 29.4897L22.5022 34.4988L27.5113 39.5079C32.9922 44.9887 39.1796 47.6874 44.6604 42.2066L46.3881 40.4789C47.2195 39.6455 47.4112 38.3689 46.8608 37.3301Z" fill="white"/>
</svg>
